<?xml version="1.0" standalone="no"?>
<!DOCTYPE svg PUBLIC "-//W3C//DTD SVG 20010904//EN"
 "http://www.w3.org/TR/2001/REC-SVG-20010904/DTD/svg10.dtd">
<svg version="1.0" xmlns="http://www.w3.org/2000/svg"
 width="120.000000pt" height="120.000000pt" viewBox="0 0 120.000000 120.000000"
 preserveAspectRatio="xMidYMid meet">
<metadata>
Created by potrace 1.11, written by Peter Selinger 2001-2013
</metadata>
<g transform="translate(0.000000,120.000000) scale(0.100000,-0.100000)"
fill="#000000" stroke="none">
<path d="M905 1184 c-16 -8 -75 -60 -130 -115 l-101 -99 -39 40 c-33 33 -46
40 -79 40 -26 0 -50 -8 -72 -25 l-33 -25 -220 55 c-121 30 -223 55 -226 55 -3
0 -5 -75 -5 -168 l0 -167 160 -80 159 -79 -21 -23 c-20 -22 -29 -23 -160 -23
l-138 0 0 -105 0 -105 60 -30 c33 -17 60 -32 60 -35 0 -2 -18 -24 -39 -49 -22
-25 -42 -59 -46 -76 -15 -70 65 -150 135 -135 17 4 51 24 76 46 25 21 47 39
49 39 3 0 18 -27 35 -60 l30 -60 105 0 105 0 0 138 c0 125 2 141 19 156 11 10
23 16 28 13 4 -3 42 -73 83 -156 l74 -151 168 0 c93 0 168 2 168 5 0 3 -25
106 -56 229 l-56 223 26 28 c45 48 32 118 -32 169 l-24 19 100 101 c55 56 107
115 116 133 33 67 16 172 -38 231 -53 59 -173 82 -241 46z m114 -68 c-2 -2
-22 -6 -44 -9 -27 -4 -35 -3 -25 3 14 9 79 15 69 6z m62 -35 c16 -16 29 -35
29 -43 -1 -7 -7 -1 -16 14 -8 15 -27 34 -42 42 -15 9 -21 15 -14 16 8 0 27
-13 43 -29z m-151 15 c0 -2 -142 -143 -315 -314 -173 -170 -315 -307 -315
-304 0 5 621 620 628 622 1 0 2 -2 2 -4z m43 -123 c23 -24 50 -44 62 -44 18
-1 18 -2 1 -6 -24 -6 -116 83 -115 112 1 20 1 20 6 0 3 -11 23 -39 46 -62z
m67 34 c10 -20 10 -21 -4 -4 -8 10 -23 25 -33 33 -17 14 -16 14 4 4 13 -6 27
-20 33 -33z m68 -60 c-7 -14 -148 -162 -313 -331 -231 -236 -313 -313 -356
-336 -31 -16 -61 -30 -65 -30 -5 0 20 16 55 35 52 28 117 88 360 336 163 166
301 311 308 323 7 11 13 35 14 51 2 30 2 30 6 3 2 -15 -2 -38 -9 -51z m-838
-547 c-16 -33 -30 -65 -30 -71 0 -6 22 9 50 35 52 49 79 57 101 29 11 -15 11
-16 -1 -5 -25 22 -50 13 -105 -39 -29 -27 -56 -46 -59 -41 -5 9 59 152 69 152
3 0 -8 -27 -25 -60z m140 -45 c0 -9 -21 -38 -46 -65 -26 -28 -40 -50 -33 -50
11 0 11 -2 -1 -9 -8 -6 -18 -7 -23 -4 -4 3 15 29 42 58 28 30 51 61 51 69 0 9
2 16 5 16 3 0 5 -7 5 -15z m-199 -78 c-10 -9 -11 -8 -5 6 3 10 9 15 12 12 3
-3 0 -11 -7 -18z m88 -61 c-2 -2 -15 -9 -29 -15 -24 -11 -24 -11 -6 3 16 13
49 24 35 12z"/>
</g>
</svg>
